PathFileType	4	(X/Y/Z)	7_2_67_p1_0-129_filt_butterworth.trc
DataRate	CameraRate	NumFrames	NumMarkers	Units	OrigDataRate	OrigDataStartFrame	OrigNumFrames
55.0	55.0	5	27	m	55.0	48	129
Frame#	Time	RHip			RKnee			RAnkle			RBigToe			RSmallToe			RHeel			LHip			LKnee			LAnkle			LBigToe			LSmallToe			LHeel			Neck			Head			Nose			RShoulder			RElbow			RWrist			RThumb			RIndex			RPinky			LShoulder			LElbow			LWrist			LThumb			LIndex			LPinky			
		X1	Y1	Z1	X2	Y2	Z2	X3	Y3	Z3	X4	Y4	Z4	X5	Y5	Z5	X6	Y6	Z6	X7	Y7	Z7	X8	Y8	Z8	X9	Y9	Z9	X10	Y10	Z10	X11	Y11	Z11	X12	Y12	Z12	X13	Y13	Z13	X14	Y14	Z14	X15	Y15	Z15	X16	Y16	Z16	X17	Y17	Z17	X18	Y18	Z18	X19	Y19	Z19	X20	Y20	Z20	X21	Y21	Z21	X22	Y22	Z22	X23	Y23	Z23	X24	Y24	Z24	X25	Y25	Z25	X26	Y26	Z26	X27	Y27	Z27	
48	0.8727272727272727	0.29789098685462717	0.28095495494047174	1.1625300475432805	0.29145426575823674	0.286086255835423	1.6025977865525793	0.26668465125699853	0.2491497892666484	2.017142920803756	0.25656575046427765	0.08458540525687253	1.99321092319942	0.31256164877926945	0.0901941247497546	1.9820542461694775	0.2461359657637178	0.30566033529796516	2.091967465076909	0.07243039480522512	0.299251726135863	1.1890216178072628	0.09951308537968845	0.2849345340745111	1.6111538899542808	0.10959914054262271	0.25695417734052495	2.0046333721632372	0.11942788408914555	0.08824996641080554	1.9999952645735102	0.05717935922851722	0.12873907893752712	1.9934635726225665	0.1173468263031135	0.30157656003721345	2.066557387469807	0.17776118526191398	0.3420009809573458	0.6223331485437193	0.17994363625745197	0.3350163186037618	0.3764065256805651	0.15465232978007892	0.2383935405381262	0.48348648183272613	0.33951555126130545	0.3392129929464359	0.7008396938901248	0.37215598119801485	0.2215362009678476	0.934825170014965	0.23788084299974804	0.14670504075091087	1.1216924414533946	0.1460186415604732	0.10432977832096932	1.19688403395665	0.14491813866513392	0.12426860150056351	1.2237843767848284	0.164897466076578	0.12409722984237305	1.235267521204094	0.024723549597286405	0.34342736342446123	0.6987903841815357	0.005103676910994575	0.2595372876198435	0.9351856335734547	0.12625519441180952	0.09696420800202377	1.091965289142473	0.20130239422727148	0.10704568077735063	1.1745050093893723	0.20405991572146093	0.11353563505303549	1.2024080923790963	0.1606658210623637	0.11625432716036724	1.2135518331072899
49	0.8909090909090909	0.2979688231172652	0.2782826814726659	1.1572287730660074	0.29258752528469545	0.2864771622548012	1.6024435873972303	0.2664348316904722	0.2489258060210274	2.019782057967018	0.2565701088759711	0.08464054795881476	1.993357243090861	0.3125698636432541	0.09018176713378925	1.9821223126604153	0.24597383309746826	0.3057082979408081	2.091681923816998	0.07216210504195249	0.30037687892937387	1.187075597875395	0.09956741379523795	0.2850322329028861	1.6111633511675558	0.10946651887032484	0.25750532122592573	2.0036121506749214	0.11951018119040883	0.08834731397267265	2.00046309468023	0.05718695262882188	0.12873453893822037	1.9935437262717355	0.11710679282254563	0.2980035251069735	2.0658761523508717	0.1776380284029466	0.3423074393585912	0.6201731480150035	0.1798573727283499	0.3349608979444958	0.3763386613726193	0.15476890778148616	0.2385360807594251	0.48353944844475244	0.3383723424247824	0.3367395167621098	0.6988882880600567	0.3722329429772583	0.22160601114525827	0.9347030935579961	0.23801073842719517	0.1469372445218829	1.121905107428801	0.14581643463583088	0.09409793282890502	1.1931805511826865	0.1451651218676226	0.11983487357119052	1.2196619312958	0.1643785978713059	0.12360537052394417	1.235460090090875	0.02475566014097954	0.34350581734120594	0.6985710499145594	0.005346967156740005	0.25976270290702663	0.9361925164605758	0.12660724807181484	0.10088249109112712	1.0937037791291617	0.20153222162189788	0.10347231273618816	1.1740395092416291	0.2041831971530011	0.1086527194614453	1.2008926062071237	0.16263018152925476	0.12200489059184155	1.2178629853667342
50	0.9090909090909092	0.2982498421843333	0.2754320761830138	1.152362782633363	0.2928960727923916	0.2866003050111128	1.6029107402872964	0.26625755599979306	0.24872333803615548	2.021773870846982	0.256570977326515	0.08467068754693148	1.9933634214291431	0.312587997173265	0.09018368951496045	1.9821574856795412	0.24597763715816512	0.3057446654612126	2.09179270688886	0.07169484490225457	0.3001808115173309	1.1855721614693882	0.099533634707682	0.28506252882926475	1.6111888148988898	0.10947849629810917	0.25750489346384986	2.0035860397040564	0.11977284227242185	0.08855129255197222	2.0018686247882167	0.05726070900670455	0.1288510331374232	1.9940852405223772	0.11716673490001994	0.295434409497666	2.066040036043363	0.17750948524932247	0.34242790460107586	0.6187017060951998	0.1798287921742852	0.3348952716658331	0.37611988201654384	0.1547499179896143	0.2384190727162285	0.4835830885003232	0.33697972408327437	0.33322767128346065	0.6973942640917428	0.3722492646898562	0.2215889810042509	0.9346852048564065	0.2381198454257242	0.14709422679665418	1.122058603465605	0.145396188607249	0.09480131170152256	1.1947043056204583	0.14524890842638968	0.11942868442453691	1.2181811601128687	0.16390007758602998	0.1229058455857936	1.2355001759623228	0.024798485173849617	0.34360828841711516	0.6984450946171091	0.0051968589446609904	0.25957297889971565	0.9381244442241585	0.12648987537189116	0.10737997862849742	1.0976049902311866	0.2008181579919152	0.10174270225724266	1.1738050237247024	0.20282475992504256	0.10703002299534832	1.2011940782912494	0.16344733816997734	0.12733198570674617	1.2228907257121682
51	0.9272727272727272	0.2987539416320889	0.2743368152443667	1.151330614234476	0.2925985303312486	0.28656491995673483	1.6043448549591757	0.2658292831632494	0.24976629694056138	2.021309716342275	0.2565558545353968	0.0846677264083999	1.99325055000772	0.31259773079789244	0.09022144236655716	1.9821485221782393	0.2460055116840697	0.3056821608231132	2.0918454823647368	0.07133550634312905	0.29752802271450224	1.1852182934968412	0.09941163036638644	0.28527251503252615	1.6114323624414075	0.10962893151887583	0.2569441257690489	2.0045457954230606	0.12013843699338955	0.08877688567443033	2.0037795384645842	0.057401081372969225	0.12905968371602297	1.9950057280795823	0.11725175385540627	0.29458572697633156	2.0662802424793147	0.1774442042466612	0.3424054974650761	0.6182206320822552	0.1802018847771664	0.3350198187347218	0.3759232302989036	0.15466299814551906	0.2382004805358904	0.48324176674314984	0.33602813592314207	0.3306044247910851	0.6970871469157228	0.3722167892544444	0.22157097339770546	0.934707108588261	0.23815721301633358	0.14714743337699032	1.1221361865391515	0.14484202853413825	0.10199852479205855	1.1988105330818986	0.1455613452944165	0.12107000090729492	1.219215690503357	0.16375583158963689	0.1222414868423082	1.2357151427461186	0.024762546130361836	0.34351225106444017	0.6991359737734874	0.005183466208246005	0.2591587794500323	0.9412526357519388	0.12556628261104186	0.11381379076807246	1.1025907838930067	0.1985707581803877	0.10091607781529503	1.1735548255660717	0.20083534985134013	0.10794793672809483	1.2022300480411252	0.16341556910941935	0.12954087660299635	1.2255184022483214
52	0.9454545454545454	0.2991743167859318	0.27540534161627456	1.1530699969366283	0.2921285224245817	0.2865029528886419	1.6061802145669895	0.26472130723144094	0.253359415006899	2.0200669314235573	0.25653809052798426	0.08461378420543149	1.9930215827588027	0.3125913065136598	0.09027610122654457	1.9820925645396694	0.24599134303236278	0.3055479859518117	2.091744094730691	0.07116854464388724	0.29327377822132017	1.1856983070127687	0.09934480916875155	0.28545439985176624	1.6115801087595678	0.10982448505925571	0.25616693091841314	2.0058934053295467	0.12042294304502257	0.08897540116219681	2.0051713123773176	0.05749168130963335	0.1292358352033714	1.995465723673428	0.11727531856503609	0.2947115303074047	2.0663651265600502	0.17742496198128202	0.3423614102539662	0.618252330373869	0.18127856756395053	0.33544344814657034	0.3761482133293785	0.1548570239149935	0.23844952387717494	0.4820478450333398	0.33577991351736747	0.32975437991631873	0.6975349471938161	0.37216962158719225	0.22156711096817425	0.9347771178093576	0.23813475094727346	0.14718296666271846	1.1221738215311161	0.14431439111029867	0.10928564625615823	1.2022421053073535	0.14604570936258465	0.12229649519537804	1.221035353010511	0.16391111879788442	0.12156016478118531	1.2366862140115675	0.024450616833737795	0.3424192038032478	0.700714567508947	0.00548042826719558	0.2586261342871298	0.9456012066703985	0.12414760854570045	0.11749243838984985	1.107235355135804	0.1959946137028761	0.10026661282732385	1.1733898787770862	0.1994414589129228	0.11063820595164939	1.203436055617873	0.1631808370410789	0.12962042213982833	1.2252923777811728
